# xmcd
#
# Track frame offsets:
#	150
#	4348
#	29959
#	54552
#	80074
#	106660
#	127144
#	129251
#	153672
#	175751
#	177122
#	196474
#	215929
#	219016
#	236978
#	257372
#
# Disc length: 3723 seconds
#
# Revision: 1
# Processed by: cddbd v1.4PL0 Copyright (c) Steve Scherf et al.
# Submitted via: dBpowerAMP V4.0
#
DISCID=e80e8910
DTITLE=Necessary Noize - Necessary Noize
DYEAR=1900
DGENRE=Hip-Hop
TTITLE0=Intro (Shairi)
TTITLE1=Nataka Toa (Feat. Nyota Ndogo)
TTITLE2=Da Noize (Feat. Mizchif)
TTITLE3=Clang! Clang!
TTITLE4=Da! Di! Da! (Feat. Jerry Doobie)
TTITLE5=Jah Children
TTITLE6=Interlude (True Story)
TTITLE7=Bwana Serikali (Feat. Bryo and Jerry Doobie)
TTITLE8=Lovers' Rock
TTITLE9=Interlude (Shagz Modo)
TTITLE10=Usijifanye
TTITLE11=Sikiza
TTITLE12=Interlude (Detention)
TTITLE13=Publik Warning
TTITLE14=Shujaa
TTITLE15=Back Up
EXTD=Current database info for this album is slightly incorrect (missing parts of the titles, spelling errors). My submission, corrects the flaws.\n\nAlso the genre should be Hip-Hop, not Blues.
EXTT0=
EXTT1=
EXTT2=
EXTT3=
EXTT4=
EXTT5=
EXTT6=
EXTT7=
EXTT8=
EXTT9=
EXTT10=
EXTT11=
EXTT12=
EXTT13=
EXTT14=
EXTT15=
PLAYORDER=
